<?xml version="1.0" encoding="utf-8"?>
<svg version="1.1" xmlns="http://www.w3.org/2000/svg" x="0px" y="0px" viewBox="0 0 1080 1080" style="enable-background:new 0 0 1080 1080;">
  <style type="text/css">
	.st0{fill:#058248;}
	.st1{fill:#122148;}
	.st2{fill:#FFFFFF;}
	.st3{fill:none;stroke:#28579A;stroke-width:0.2445;stroke-miterlimit:10;}
	.st4{fill:#1E3A93;}
	.st5{fill:#E74C43;}
</style>
  <g transform="matrix(1, 0, 0, 1, 3.86534, -34.4519)">
    <g id="Layer_1"/>
    <g id="Layer_2">
      <g>
        <g/>
        <g/>
        <g>
          <g>
            <path class="st0" d="M 1059.06 588.004 C 1059.06 857.655 842.206 1076.66 573.328 1080.07 L 573.328 95.965 C 842.24 99.336 1059.06 318.35 1059.06 588.004 Z" style=""/>
          </g>
          <g style="" transform="matrix(3.37149, 0, 0, 3.37149, -240.419, -1232.61)">
            <path class="st1" d="M 241.37 394.06 L 241.37 685.94 C 240.74 685.95 240.12 685.95 239.49 685.95 C 210.41 685.95 183.35 677.4 160.6 662.76 C 126.08 679.31 72.97 673.6 72.97 673.6 C 101.03 661.97 110.9 633.56 114.37 615.14 C 101.14 593.21 93.52 567.5 93.52 540 C 93.52 459.39 158.87 394.04 239.48 394.04 C 240.11 394.04 240.74 394.04 241.37 394.06 Z"/>
          </g>
          <g style="" transform="matrix(3.37149, 0, 0, 3.37149, -240.419, -1232.61)">
            <path class="st2" d="M 301.15 523.11 C 300.51 523.51 300.2 524.22 300.39 524.94 L 309.89 562.6 C 310.09 563.32 309.73 564.11 309.05 564.47 L 242.53 599.94 C 242.01 600.22 241.38 600.22 240.86 599.9 L 178.35 561.53 C 177.67 561.09 177.4 560.3 177.63 559.54 L 189.64 524.71 C 189.92 523.91 189.52 523 188.73 522.64 L 144.08 503.91 L 144.08 536.95 L 142.29 536.95 C 145.07 536.95 147.34 539.18 147.42 541.96 L 149.17 610.35 C 149.25 613.25 146.94 615.64 144.04 615.64 L 136.49 615.64 C 133.55 615.64 131.2 613.13 131.36 610.19 L 135.34 541.8 C 135.5 539.06 137.77 536.95 140.47 536.95 L 139.32 536.95 L 139.32 501.88 L 133.44 499.41 C 131.93 498.77 132.13 496.59 133.72 496.23 L 240.84 473.57 C 241.08 473.53 241.32 473.53 241.56 473.57 L 343.11 494.49 C 344.58 494.77 344.94 496.76 343.63 497.51 L 301.15 523.11 Z"/>
          </g>
        </g>
      </g>
    </g>
  </g>
</svg>